<?xml version="1.0" encoding="UTF-8" standalone="no"?>
<svg xmlns:rdf="http://www.w3.org/1999/02/22-rdf-syntax-ns#" xmlns="http://www.w3.org/2000/svg" height="680.13" viewBox="0 0 1000 680.13275" width="1e3" version="1.1" xmlns:cc="http://creativecommons.org/ns#" xmlns:dc="http://purl.org/dc/elements/1.1/">
<path d="m130.76 676.09c-5.358-3.5465-6.5977-5.0583-6.2802-7.6587 0.36587-2.9962-0.2638-3.371-8.3697-4.9822-15.342-3.0495-23.167-11.9-24.476-27.684-0.77898-9.3935 1.3448-9.3694 8.6563 0.0979 8.0409 10.412 34.992 21.814 44.459 18.81 3.6023-1.1433 46.519-46.348 54.103-56.988 14.496-20.336 25.205-36.444 32.813-49.36 1.1573-1.9646 3.2164-5.2694 4.5756-7.3439s4.0622-6.7849 6.0066-10.468c1.9444-3.6827 4.2347-7.8974 5.0897-9.3661 10.451-17.953 23.726-51.271 21.297-53.452-2.052-1.8415-28.329-0.4727-50.742 2.6433-19.778 2.7497-20.44 2.7198-20.608-0.92891-0.61891-13.438 5.9094-52.463 14.127-84.449 3.0186-11.749 6.0852-25.44 6.8146-30.423 0.72938-4.9832 2.5498-12.693 4.0454-17.132 9.6033-28.507 9.2299-37.485-1.0353-24.896-32.443 39.788-58.417 47.787-97.995 30.18-6.3388-2.8198-12.143-5.127-12.898-5.127-4.2358 0-40.377-34.38-47.917-45.583-10.874-16.155-36.392-9.0409-37.5 10.454l-0.59285 10.428 6.1547 4.3153c11.275 7.9057 13.776 17.916 8.021 32.112-2.7127 6.6915 4.7887 21.032 19.89 38.023 9.7844 11.009 9.961 16.95 0.63413 21.334-8.9643 4.2132-20.857-8.1056-34.087-35.308-4.265-8.75-5.866-10.72-10.785-13.27-13.834-7.17-18.866-29.26-9.0649-39.79 3.7234-4 6.5699-32.87 3.4321-34.81-5.735-3.55-1.7033-20.92 5.8938-25.41 2.546-1.5022 5.575-4.1749 6.7311-5.9394 1.2711-1.94 3.9834-3.5611 6.8612-4.101 2.9018-0.54439 5.5906-2.1619 6.8898-4.1448 3.3002-5.0367 12.057-9.0254 15.936-7.2583 5.1121 2.3292 4.2003 8.0945-2.2196 14.034-6.0816 5.6269-6.2572 4.8851 3.9673 16.758 4.6383 5.386 7.1596 7.067 13.243 8.8294 4.1324 1.1973 10.033 3.321 13.113 4.7193 23.601 10.717 67.215 15.024 89.197 8.8079 3.6717-1.0382 11.482-3.2337 17.357-4.8788 5.8747-1.6451 11.252-3.5309 11.95-4.1907 0.69762-0.65977 2.2126-1.1996 3.3666-1.1996s8.0935-3.0708 15.421-6.8239c20.794-10.651 25.134-14.539 16.228-14.539-4.292 0-15.769-1.6738-42.293-6.1678-56.688-9.6049-75.149-62.806-39.225-113.04 2.5108-3.5106 5.555-8.8569 6.7649-11.881 1.9276-4.8175 10.55-20.433 17.929-32.472 4.2886-6.9966 11.861-21.91 11.861-23.361 0-1.9417-3.9257-3.3123-19.36-6.7591-18.947-4.2312-22.393-13.273-5.0587-13.273 1.0374 0 5.0033-1.4582 8.8131-3.2405s12.484-4.248 19.277-5.4793c12.051-2.1847 14.849-3.6588 9.9152-5.2246-11.31-3.5897-13.645-18.55-3.8412-24.61 13.649-8.4354 121.12-17.829 155.15-13.56 31.621 3.9675 38.934 8.1924 46.231 26.708 1.6001 4.06 4.39 10.686 6.1999 14.725 4.7862 10.681 6.5934 16.129 9.6586 29.119 4.4459 18.841 6.372 22.952 10.755 22.952 9.9159 0 14.561 11.195 10.585 25.51-1.0973 3.9502-0.8404 5.9387 1.4302 11.072 1.5222 3.4413 3.0002 7.2827 3.2845 8.5366 0.28422 1.2539 2.272 7.3867 4.4174 13.629 2.1453 6.2418 6.3284 18.859 9.2956 28.038 5.4116 16.741 13.067 37.717 17.172 47.051 10.914 24.82 93.638 40.729 127.69 24.558 3.8258-1.8166 8.1756-3.65 9.6662-4.0742 8.7704-2.4955 20.92-12.418 28.743-23.475 13.357-18.878 15.54-19.727 39.346-15.29 9.2715 1.728 20.223 17.413 15.596 22.337-3.6367 3.8711-3.6907 6.2898-0.28928 12.957 2.0846 4.0862 22.709 63.115 22.709 64.995 0 1.375 6.5987 0.14854 7.948-1.4773 5.6554-6.8143 26.898-13.816 28.584-9.4219 0.42268 1.1015 1.5384 2.0079 2.4794 2.0143 1.6312 0.0107 11.725 8.7695 11.725 10.174 0 0.3692-0.64708 1.8804-1.438 3.3581-3.203 5.9848-0.41289 6.6395 8.394 1.9698 20.746-11 69.342-34.861 90.038-44.209 10.783-4.8705 15.89-4.0359 14.627 2.3907-0.99799 5.0779-3.2654 6.8813-18.944 15.067-22.648 11.824-31.956 16.933-38.603 21.187-3.6717 2.35-8.2913 5.2683-10.266 6.4852-3.973 2.4486-8.5023 10.642-12.888 23.314-5.2847 15.271-3.5393 18.49 8.4666 15.617 20.066-4.8017 27.291 0.81976 34.376 26.747 2.9345 10.738 7.9613 9.4864 24.798-6.1755l7.1034-6.6076 4.4871 3.7212c2.4679 2.0467 4.9078 4.9229 5.422 6.3916 0.51419 1.4687 2.0577 4.2651 3.43 6.2143 6.0031 8.5265 1.974 13.402-15.08 18.249-18.523 5.264-21.812 4.4227-29.697-7.5966-14.538-22.161-25.357-27.831-22.391-11.736 3.3896 18.396 2.1986 21.057-5.7718 12.894-10.143-10.388-10.546-8.2775-2.8772 15.059 3.1907 9.7089 6.5211 20.575 7.4008 24.146 1.9393 7.8733 8.0372 20.096 12.747 25.55 11.377 13.175 38.849 63.121 45.165 82.112 12.169 36.592 6.8743 81.896-7.7898 66.66-3.6193-3.7606-11.087-10.731-16.594-15.49l-10.014-8.652-2.253-10.912c-1.2391-6.0014-2.9191-14.768-3.7332-19.481-0.81411-4.7132-2.5845-11.923-3.9341-16.022-1.3496-4.0988-3.4898-12.217-4.7559-18.039-2.2388-10.296-7.4862-25.798-14.72-43.487-5.8688-14.351-7.8852-13.781-4.0473 1.1424 1.0659 4.1448 2.5859 11.441 3.3777 16.215 0.79183 4.7732 2.3362 13.185 3.432 18.692 1.0958 5.5075 2.522 12.731 3.1695 16.051 4.6464 23.83 3.1658 40.132-5.2723 58.05-2.7666 5.8747-5.9636 12.934-7.1045 15.688-2.9861 7.2074-3.9004 6.7054-21.363-11.728l-15.814-16.694-1.9407-14.995c-1.1563-8.9343-1.9258-25.923-1.9037-42.032 0.0371-27.125-1.3136-33.149-5.8033-25.885-0.39159 0.6336-3.5814 1.9335-7.0884 2.8887-3.507 0.95516-9.3979 3.0487-13.091 4.6523-11.506 4.9962-15.477 5.2056-21.442 1.1306-5.259-3.5929-19.232-9.8235-22.03-9.8235-1.0056 0-1.1604 1.2206-0.46538 3.6717 2.599 9.1665-0.14683 15.068-8.2564 17.744-5.2276 1.7252-5.3441 2.1444-1.8413 6.6225 8.5691 10.955-8.5565 21.071-17.906 10.578-4.6968-5.2714-2.2925-15.801 3.6444-15.961 4.143-0.11148 6.2184-3.4351 4.6838-7.5007-4.0293-10.675 3.9398-19.841 15.86-18.242 8.717 1.1692 15.725-8.3934 10.435-14.239-2.5975-2.8702-1.7173-5.371 1.8906-5.371 5.9854 0 8.6079-10.197 4.1673-16.203-3.0382-4.1093-2.895-7.8297 0.30126-7.8297 5.3718 0 6.6826-11.112 2.0681-17.532-1.3015-1.8109-0.73937-2.9032 3.3347-6.4803 5.679-4.9862 6.3888-9.7838 2.2297-15.071-3.5026-4.4528-3.3685-6.5252 0.66758-10.317 5.0212-4.7172 3.0224-13.967-3.6627-16.95-2.4739-1.1039-2.4679-1.2262 0.22725-4.6525 3.727-4.7381 3.4838-9.3853-0.75483-14.423-3.5088-4.1699-3.5119-4.1941-0.78996-6.1006 5.6306-3.9438-0.75083-11.717-7.205-8.7759-3.5582 1.6212-4.2127 5.1899-1.1663 6.3589 3.0616 1.1748 2.4087 3.8769-2.0027 8.2884-4.8841 4.8841-5.5321 11.961-1.3352 14.582 2.9946 1.8701 3.5413 5.1376 1.0014 5.9843-3.385 1.1284-2.0224 12.473 2.0027 16.675 4.2946 4.4826 4.6198 6.5433 1.204 7.6274-5.3898 1.7107-6.997 10.54-2.8729 15.783 3.0883 3.9261 3.4286 6.3114 0.90031 6.3114-6.4533 0-10.198 12.658-5.2181 17.638l2.7695 2.7695-4.5665 4.3067c-4.6619 4.3967-6.5871 13.934-3.2313 16.008 2.4714 1.5274 1.3633 3.2903-3.2904 5.2347-4.4513 1.8599-5.3598 3.4284-6.3495 10.962-0.37259 2.8362-0.39704 2.8341-7.7171-0.67978-4.0388-1.9388-15.454-7.045-25.368-11.347-9.9135-4.3021-22.531-9.7967-28.038-12.21-5.5075-2.4134-15.421-6.6306-22.03-9.3716-6.609-2.7409-15.621-6.61-20.027-8.598s-11.076-4.6281-14.822-5.867c-10.584-3.5003-11.605-4.6081-10.028-10.884 3.2284-12.848 6.0721-21.753 16.189-50.7 2.0532-5.8747 5.2431-15.187 7.0888-20.695 1.8456-5.5075 4.9683-14.219 6.9393-19.36 1.971-5.1404 4.0707-11.346 4.666-13.791 1.5472-6.3539 1.2819-6.3244 15.659-1.7379 7.2071 2.2991 13.495 4.1802 13.972 4.1802 0.47761 0 1.8601-3.4547 3.0721-7.6771 2.4809-8.6429 11.636-37.289 18.029-56.41 6.02-18.007 6.331-20.783 2.4448-21.824-7.2707-1.9466-7.4077-1.7669-19.077 25.003-6.28 14.406-25.236 43.086-32.327 48.909-25.973 21.331-55.042 20.312-81.016-2.8375-12.085-10.771-12.158-11.577 3.0032 32.861 1.5032 4.406 3.2997 8.9801 3.9922 10.165 0.69248 1.1845 4.0669 10.497 7.4987 20.695s7.6293 21.846 9.3278 25.885c3.7762 8.9793 7.336 20.388 7.336 23.511 0 1.2729 0.85551 3.2628 1.9011 4.4222 1.6143 1.7899 10.539 33.505 9.6726 34.372-0.72277 0.72279-13.4 3.2925-26.881 5.449-17.009 2.7208-16.946 2.6658-24.804 21.836-14.841 36.208 3.5109 65.538 43.811 70.018 7.3006 0.81154 9.5935 0.44542 29.982-4.7873 2.7371-0.70248 8.4449-3.1607 12.684-5.4628 4.239-2.302 10.009-5.3924 12.823-6.8674 9.7343-5.1032 22.948-14.32 29.03-20.25 6.6623-6.4948 10.251-6.9094 13.96-1.6129 3.153 4.5016 2.3129 7.3304-3.336 11.232-6.4772 4.4735-7.4712 7.009-4.7846 12.204 5.8282 11.271-2.7524 30.833-17.675 40.297-11.608 7.3617-12.478 4.2054-3.5958-13.055 14.963-29.079 16.01-41.403 2.0256-23.828-3.7731 4.7417-9.3824 10.592-12.465 13.001-3.0827 2.4087-10.712 8.6232-16.954 13.81-15.504 12.884-31.196 22.837-43.336 27.486-3.703 1.4182-7.9343 3.1311-9.403 3.8066-80.97 37.238-149.39-12.788-130.25-95.242 6.3804-27.498 2.9828-32.166-10.955-15.052-9.7261 11.942-34.433 36.104-48.152 47.088-3.5445 2.8381-9.8531 8.2319-14.019 11.986-9.0639 8.1682-32.472 25.966-43.624 33.168-4.406 2.8455-12.079 7.9286-17.05 11.296-4.9717 3.3671-10.055 6.7229-11.295 7.4572-9.1208 5.3983-27.104 17.079-30.401 19.746-3.9963 3.2329-11.988 7.762-34.714 19.674-6.609 3.4642-15.321 8.0639-19.36 10.222-4.0388 2.1577-10.648 5.1377-14.687 6.6222-6.7376 2.4765-7.7074 3.3786-11.756 10.936-5.0752 9.4728-5.3453 9.5414-14.279 3.6279zm744.58-68.93c1.5698-10.263 1.2301-18.364-0.64714-15.432-0.87473 1.3662-3.2917 5.1099-5.3711 8.3193l-3.7807 5.8353 2.9168 4.0963c3.7781 5.3059 5.7637 4.4925 6.8821-2.819zm-71.178-9.5712c9.1577-20.137 11.466-33.947 8.5359-51.07-10.552-61.659-13.091-73.272-19.409-88.788-4.846-11.899-6.8958-14.629-9.2314-12.293-4.3329 4.3329-8.3873 1.1583-6.2717-4.9107 1.6362-4.6935 3.1234-5.2358 5.0275-1.8334 5.5002 9.8284 2.5002-6.1837-4.043-21.578-7.2649-17.093-8.1055-15.578-7.0865 12.773 0.60251 16.762 0.36697 27.879-0.74545 35.186-2.1564 14.163-3.1528 58.417-1.9651 87.268l0.95432 23.18 14.174 15.205c16.648 17.86 15.273 17.389 20.061 6.8607zm-9.1662-17.436c0-3.9641 3.1474-8.2865 5.1381-7.0562 2.0133 1.2443 1.9736 6.4985-0.0645 8.5367-2.5779 2.5779-5.0736 1.8496-5.0736-1.4805zm-17.35-15.35c0-6.4302 3.4581-9.8449 5.2409-5.1751 1.9692 5.1582 1.8019 7.1637-0.67704 8.115-3.7261 1.4298-4.5638 0.8902-4.5638-2.9398zm15.375-10.902c-1.2405-2.0072 0.67432-7.6563 3.4451-10.164 3.3176-3.0024 4.2533-1.9112 3.1957 3.7264-0.86203 4.595-5.1878 8.7883-6.6408 6.4374zm-15.375-29.02c0-4.838 3.3955-9.7331 6.7515-9.7331 3.058 0 3.7795 8.0711 0.92566 10.354-4.4686 3.575-7.6771 3.3154-7.6771-0.62122zm19.26-19.669c-0.85526-3.4076 1.1359-7.4209 3.6818-7.4209 1.8348 0 0.7111 9.7128-1.1962 10.339-0.89083 0.29252-2.0094-1.0207-2.4856-2.9182zm-17.925-23.347c0-8.7616 5.406-12.335 7.8883-5.2138 1.7627 5.0566-0.94846 10.459-5.2488 10.459-2.1814 0-2.6395-0.9105-2.6395-5.2452zm92.111 109.42c4.1257-8.2057 5.3555-12.191 5.3555-17.357 0-10.45-2.7929-8.8289-8.0007 4.6434-1.7032 4.406-4.5051 9.9235-6.2265 12.261-3.5026 4.7564-3.8863 7.1432-1.5276 9.5019 3.1568 3.1568 5.122 1.4466 10.399-9.0494zm-10.559-8.9479c5.742-12.798 4.2622-14.316-3.1117-3.1923-7.1018 10.713-7.519 12.111-3.6158 12.111 2.0733 0 3.6844-2.1357 6.7275-8.9183zm-5.2782-7.4374c3.0472-6.0583 6.6556-14.254 8.0188-18.213 1.3631-3.9589 3.132-7.9856 3.9309-8.9482 1.7681-2.1305 0.37088-7.219-1.9822-7.219-0.93447 0-2.5163 2.4764-3.5152 5.503-0.9989 3.0267-5.6012 12.037-10.227 20.023-9.8706 17.039-10.469 19.869-4.1981 19.869 1.7094 0 4.0804-3.2754 7.9733-11.015zm-8.0994-10.069c1.5553-3.4577 4.3219-10.793 6.148-16.3 1.8261-5.5075 4.2542-12.073 5.3958-14.589 2.3324-5.1414 1.1232-11.14-2.3816-11.815-1.4506-0.27934-2.7592 1.864-4.4755 7.3304-1.3341 4.2488-4.8207 12.499-7.7481 18.333-4.5924 9.1526-5.2124 11.411-4.5196 16.466 1.4194 10.356 3.1234 10.485 7.581 0.575zm26.622-7.7006c0-2.2031-2.1101-2.5753-3.3379-0.58877-1.0888 1.7618 0.50764 4.2619 2.095 3.2809 0.68358-0.42248 1.2429-1.6339 1.2429-2.6921zm-32.655-15.333c9.9516-26.759 11.269-36.848 5.1212-39.208-2.1107-0.80997-2.3572-0.30821-7.8094 15.9-5.0903 15.132-5.2297 16.079-3.3523 22.784 1.9386 6.9238 3.6065 7.0684 6.0405 0.52369zm-162.16-14.28c1.2444-6.1371-1.1306-8.9393-6.5648-7.7458-9.734 2.1379-8.316 13.444 1.5642 12.472 3.4547-0.33996 4.2669-1.1076 5.0006-4.726zm156.29-15.779c1.3345-5.1007 3.0942-11.27 3.9106-13.711 1.1208-3.3502 1.0816-5.4087-0.16013-8.4065-2.2799-5.5041-5.5746-4.4748-6.949 2.171-0.60644 2.9324-2.0518 8.7096-3.2118 12.838-1.7368 6.1815-1.823 8.374-0.48792 12.419 2.2634 6.8581 4.0804 5.459 6.8983-5.3115zm-147.66-3.8726c3.5911-3.5911 4.0427-6.1493 1.8189-10.304-2.6542-4.9595-14.564-0.22002-14.564 5.7957 0 7.5683 7.1541 10.099 12.745 4.5087zm140.83-19.539 2.9983-12.134-2.8118-2.8118c-3.5137-3.5137-3.9669-3.0372-6.2658 6.5867-2.2552 9.4407-2.4178 14.475-0.57866 17.912 2.4258 4.5326 3.5908 2.861 6.658-9.552zm-9.0722-16.013c1.0733-9.4762 0.42756-13.243-2.2704-13.243-2.8087 0-4.8213 17.888-2.449 21.767 1.7793 2.9088 3.8476-0.82696 4.7194-8.5242zm-464.55-11.73c1.5619-7.919 0.22261-8.954-8.641-6.6775-4.9186 1.2633-15.78 1.828-35.156 1.828-27.148 0-28.038 0.0848-28.038 2.6703 0 3.8034 33.945 8.534 58.708 8.1814l11.977-0.17051 1.1502-5.8318zm455.16-3.8481c0.66443-7.7206-0.0288-11.015-2.318-11.015-2.3628 0-3.7612 9.293-2.0685 13.745 2.064 5.4287 3.7761 4.363 4.3865-2.7302zm-8.5587-13.364c-0.67404-7.0148-3.4942-13.848-6.0604-14.683-1.2445-0.40533-1.4399 1.0689-0.78326 5.9096 1.8276 13.473 8.0633 21.467 6.8436 8.7737zm-455.02 2.5267c8.2047-0.79917 8.7014-1.0434 9.0968-4.4741l0.41834-3.6287-17.108 0.56242c-11.155 0.36673-22.683-0.17609-33.13-1.56-22.547-2.9868-22.618-2.9848-23.134 0.65143-0.68277 4.8163 2.0164 7.0238 7.6017 6.2172 2.668-0.38531 9.3571 0.15462 14.865 1.1999 10.624 2.0162 27.074 2.4263 41.39 1.0319zm-3.1626-20.097 13.527-0.10842 1.5659-6.2186c2.0056-7.9652 1.2101-8.4159-10.934-6.1954-7.5077 1.3728-45.715 3.3002-61.412 3.098-13.656-0.17591-0.81616 6.451 15.354 7.9244 9.7299 0.88662 18.592 1.7234 19.694 1.8596 1.1015 0.13615 3.5048 0.13534 5.3406-0.001 1.8358-0.1371 9.425-0.29811 16.865-0.35776zm-288.48-26.24c-3.2958-2.4325-4.7516-2.4253-4.7516 0.0235 0 2.6635 4.2818 4.9663 6.0082 3.2312 0.89135-0.89585 0.47368-1.9777-1.2566-3.2547zm267.62 1.2963c10.648-1.1287 24.265-2.3852 30.261-2.7921 9.5881-0.6508 10.989-1.074 11.627-3.5131 1.9153-7.3239-9.1633-8.1469-39.352-2.9234-10.574 1.8296-24.182 3.3317-30.241 3.3379l-11.015 0.0113v4.0055 4.0055l9.6799-0.0396c5.3239-0.0218 18.392-0.96315 29.04-2.0918zm-263.03-3.8767c0-1.1015-0.9748-2.0027-2.1662-2.0027-1.7741 0-1.8654 0.36248-0.50409 2.0027 0.91417 1.1015 1.889 2.0027 2.1662 2.0027 0.27725 0 0.5041-0.90123 0.5041-2.0027zm244.33-17.36c4.7732-1.0499 16.189-1.9633 25.368-2.0298 26.174-0.18966 41.542-2.5752 43.924-6.8181 2.5898-4.6141 1.0731-8.4318-2.8838-7.2585-16.353 4.8492-34.941 5.815-60.021 3.1187-30.913-3.3236-32.801-2.3976-26.832 13.158 0.91295 2.3791 9.1657 2.3102 20.445-0.1707zm471.04-11.015c5.4361-8.5928 12.288-23.638 12.288-26.981 0-5.8382-4.1975-2.6103-8.1744 6.2863-2.2158 4.9568-5.7894 12.617-7.9413 17.023-5.9741 12.232-3.2443 14.85 3.8277 3.6717zm-2.3986-24.56c0-3.6003-2.8342 0.13782-6.9797 9.2057-5.7776 12.638-6.4226 14.525-5.3368 15.611 0.80487 0.80488 12.316-22.39 12.316-24.816zm-33.23 15.22c0.78417-2.0194 2.9324-6.5675 4.7738-10.107 2.7484-5.2825 3.4663-9.7504 1.2008-7.4728-1.7324 1.7417-10.128 17.804-10.128 19.377 0 3.2066 2.6567 2.057 4.1533-1.7972zm-709.35-5.51c4.8065-3.4226 9.1174-15.368 7.5679-20.971-0.59239-2.142-1.2399-4.7107-1.4389-5.7082-2.2556-11.304-20.945-12.659-27.914-2.0239-11.829 18.053 5.2112 40.505 21.785 28.703zm-11.495-12.51c-0.75553-0.91792-1.6997-4.673-2.0982-8.3447-0.7134-6.5735-0.70169-6.5999 0.76463-1.7241 1.6786 5.5816 3.9153 6.5714 9.7236 4.3029 7.2149-2.8179 7.978-0.45187 1.1507 3.5676-7.451 4.3866-7.6935 4.4425-9.5408 2.1982zm335.5 11.114c4.406-0.62715 11.315-1.5454 15.354-2.0405 12.583-1.5425 13.217-1.8288 15.346-6.9236 1.106-2.647 2.0109-5.0397 2.0109-5.3172 0-1.2398-7.6722-0.31647-10.76 1.295-11.308 5.901-72.811 4.6178-89.9-1.8757-7.893-2.9991-9.0244-2.0858-7.2422 5.8466 1.6215 7.2168 0.34455 6.5988 18.888 9.1411 16.628 2.2797 39.767 2.228 56.303-0.12578zm342.4-5.2665c0.87306-2.1077 3.0488-4.4982 4.835-5.312 3.1004-1.4126 4.5038-4.2073 2.1128-4.2073-3.743 0-14.253 9.802-12.884 12.016 1.5529 2.5126 4.3485 1.3367 5.9365-2.4971zm-7.6128-3.3118c1.8626-1.7262 5.5553-4.4789 8.2059-6.1171 4.158-2.5698 6.3312-5.431 4.1252-5.431-2.8608 0-17.998 11.965-17.998 14.227 0 1.3539 2.6853 0.0846 5.667-2.6787zm26.974 0.35429c-0.42988-0.69558-1.3507-0.91296-2.0463-0.48306-0.69558 0.42988-0.91295 1.3507-0.48306 2.0463 0.42988 0.69558 1.3507 0.91296 2.0463 0.48306 0.69557-0.42988 0.91295-1.3507 0.48305-2.0463zm-28.277-7.9886c8.931-6.9697 11.613-10.59 7.8458-10.59-1.3858 0-22.127 15.986-22.668 17.471-1.274 3.497 5.6326 0.29081 14.823-6.881zm-19.262 2.6941c1.952-1.506 6.8245-5.2585 10.828-8.3389 10.297-7.9232 5.5278-8.0149-6.7963-0.13058-5.4057 3.4583-10.053 6.4676-10.327 6.6874-3.8586 3.0921 2.3281 4.8432 6.2958 1.7821zm44.02-0.28121c0.62235-3.2316-2.0108-2.9086-3.8181 0.46835-1.2786 2.389-1.1437 2.7223 0.93906 2.3212 1.3376-0.25759 2.6331-1.5129 2.879-2.7895zm18.596 1.3505c2.5389-3.2234 3.2374-9.0123 1.0876-9.0123-2.3358 0-4.7455 4.0232-4.7455 7.9232 0 3.0992 1.6806 3.5996 3.6579 1.0891zm-364.15-8.2656c5.5075-0.98018 14.144-2.9084 19.192-4.2849l9.178-2.5028 5.7752-9.9973c5.8298-10.092 6.9592-13.335 4.6436-13.335-2.9886 0-22.473 6.8639-26.471 9.3251-2.4043 1.4802-5.2794 2.6913-6.389 2.6913s-3.6232 1.0514-5.5858 2.3365c-4.9916 3.2684-70.574 3.3616-81.12 0.11536-3.6717-1.1302-7.5628-2.2945-8.6468-2.5872-5.046-1.3625-2.9484 11.265 2.3242 13.992 9.3912 4.8561 67.702 7.6995 87.1 4.2473zm278.93-3.0832c3.6732-3.4313 4.0693-4.8081 6.0503-21.029 1.1659-9.5464 2.9718-22.764 4.0132-29.373 1.9431-12.332 5.152-34.19 5.1943-35.382 0.0134-0.36717-0.83481-0.83187-1.8841-1.0327-2.8385-0.54322-4.7185 4.3982-13.854 36.414-1.6763 5.8747-5.5321 18.316-8.5686 27.648-3.0364 9.3315-5.5208 18.374-5.5208 20.094 0 7.1282 8.1867 8.623 14.57 2.6604zm138.31-0.0525c2.203-1.1078 7.31-4.2407 11.349-6.962 12.273-8.269 38.706-23.808 43.43-25.53 6.0214-2.1955 34.01-19.23 34.01-20.699 0-2.0878 0.21887-2.1642-19.36 6.7533-10.63 4.8416-30.834 14.952-33.379 16.703-0.73434 0.50532-5.5409 2.6317-10.681 4.7253-5.1404 2.0936-13.512 6.2608-18.603 9.2604-5.0915 2.9996-13.177 7.0279-17.967 8.9519-10.448 4.1964-11.162 5.4821-4.5311 8.1558 5.4163 2.1838 9.367 1.8426 15.733-1.3588zm-110.93-3.2854c6.2525-4.5597 7.7583-7.6772 3.7083-7.6772-3.2089 0-13.615 7.7418-13.615 10.129 0 3.0615 3.5512 2.1825 9.9063-2.452zm29.45-7.6435c3.3642-3.7175 2.0197-11.975-5.1416-31.578-3.1853-8.7194-7.7821-21.862-10.215-29.205-5.6622-17.09-11.841-23.16-13.93-13.685-3.5542 16.115-9.4611 66.838-8.0494 69.122 0.44798 0.72484 2.4541 0.0533 4.6164-1.5453l3.8241-2.8273 4.1763 2.9738c4.0378 2.8752 17.889 9.023 20.872 9.2637 0.80411 0.0649 2.5358-1.0685 3.8482-2.5187zm-337.1-12.72c5.5075-1.7402 15.421-4.7566 22.03-6.7031s13.518-4.0464 15.354-4.6665c1.8358-0.62009 5.3013-1.5155 7.701-1.9898 4.7839-0.94555 13.662-11.03 13.662-15.518 0-2.683-5.0879-3.5221-7.4101-1.2221-1.8242 1.8067-40.344 14.367-51.728 16.867-18.852 4.1403-69.804 4.0135-91.401-0.22734-3.685-0.7236-4.4451 8.5105-0.98541 11.97 5.9429 5.9429 75.166 7.0546 92.777 1.4899zm-16.484-21.409c14.898-2.3974 20.841-3.9028 41.852-10.602 16.506-5.2629 28.297-8.777 40.193-11.979 6.439-1.7331 8.239-2.9861 12.92-8.9941 7.2619-9.3197 6.1472-9.9823-6.1876-3.6782-5.7128 2.9197-16.355 6.862-23.649 8.7607-7.2943 1.8987-15.365 4.0418-17.935 4.7625-2.5702 0.7207-7.6772 1.8642-11.349 2.5411-13.534 2.495-18.93 3.6582-29.373 6.3311-29.467 7.5422-52.259 6.7033-80.695-2.9701-7.6656-2.6077-14.146-4.5332-14.4-4.2788-0.79546 0.79544 5.1951 16.069 7.092 18.082 3.8942 4.1322 59.807 5.5205 81.533 2.0244zm-324.46-2.54c-0.12012-2.043-1.4481-3.8969-3.5304-4.9286-3.3375-1.6536-3.3376-1.6538-0.33379-2.1587 5.5346-0.93021 3.0785-2.9895-3.5656-2.9895-7.2569 0-10.119 4.4465-6.8238 10.603 2.3994 4.4833 14.522 4.0358 14.254-0.5262zm12.895-0.75881 1.8901-2.6985 8.7007 2.9051c11.903 3.9744 15.598 2.6079 8.8912-3.2886-2.6482-2.3282-7.9911-8.1385-11.873-12.912-10.09-12.406-11.693-13.029-18.591-7.2247-7.284 6.129-3.2037 10.431 4.2972 4.5309 3.2625-2.5663 6.1572-1.6806 4.3046 1.317-0.4397 0.71145-1.0214 3.2649-1.2926 5.6744-0.27124 2.4095-0.92678 6.634-1.4568 9.3877-1.1129 5.7826 1.7836 7.0859 5.1299 2.3084zm309.36-27.36c20.332-1.1819 77.983-10.587 86.118-14.049 1.4687-0.6251 4.7732-1.5401 7.3434-2.0333 8.3276-1.5981 19.006-7.3135 18.232-9.758-0.3806-1.2016-2.5541-7.592-4.8299-14.201-2.2759-6.609-5.8866-18.625-8.0238-26.703-8.1193-30.688-16.431-53.364-19.731-53.833-3.5275-0.50099-3.821-1.9063-0.90378-4.3274 6.5424-5.4298 8.9115-17.039 4.6154-22.617l-2.571-3.3379-6.317 3.3379c-3.4744 1.8358-7.8616 4.9796-9.7495 6.9862-3.7956 4.0344-9.6802 8.3784-18.787 13.868-3.3045 1.9921-7.2647 4.739-8.8004 6.1042-17.47 15.53-69.752 9.1032-101.58-12.486-12.113-8.2157-22.274-6.3699-45.169 8.2052-11.005 7.0061-23.069 7.6204-46.724 2.3793-20.458-4.5328-18.562-4.7134-22.388 2.1331-9.6127 17.199-22.339 58.395-22.339 72.312 0 27.172 28.471 39.69 100.14 44.029 7.7105 0.46688 18.179 1.4211 23.264 2.1204 5.0845 0.69937 16.2 1.6221 24.7 2.0506 8.5007 0.42845 15.624 0.9343 15.829 1.1241 0.48009 0.44371 18.08-0.16591 37.679-1.3051zm-98.76-67.528c-16.762-2.0253-26.189-6.1064-39.991-17.313-7.3046-5.931-8.9388-6.7325-11.045-5.4169-1.9749 1.2334-2.6292 1.135-3.2524-0.489-0.42908-1.1181-2.0677-2.0422-3.6414-2.0534-4.4557-0.0318-10.48-6.8377-7.6177-8.6065 4.5965-2.8408 13.435-2.3338 13.435 0.77064 0 2.411 1.4491 3.9566 5.9462 6.3423 3.2704 1.735 8.295 5.1649 11.166 7.6222 17.18 14.706 57.572 17.946 82.395 6.6105 3.6927-1.6863 9.4005-3.9819 12.684-5.1014 3.2835-1.1194 9.8753-3.8372 14.648-6.0396 4.7732-2.2023 11.207-4.6762 14.297-5.4976 3.0899-0.82136 5.9793-2.0779 6.4208-2.7922 1.3335-2.1576 3.8145-1.4804 7.6684 2.093 4.3044 3.9913 4.9362 6.7322 1.0755 4.666-5.7819-3.0944-16.003-0.88659-28.794 6.2196-31.811 17.673-49.464 22.119-75.394 18.986zm9.9718-29.258c-0.48052-0.77751 0.85869-1.3352 3.2065-1.3352 2.2174 0 4.6471-0.75102 5.3993-1.6689 0.75221-0.91792 2.9735-3.6707 4.9362-6.1173 3.7211-4.6386 4.6261-4.7546 15.954-2.0445 3.2376 0.77454 7.3618-6.0309 6.2444-10.304-1.0544-4.0321-8.3556-4.6408-15.001-1.2506-5.5011 2.8064-7.823 2.8868-6.1709 0.2137 6.4768-10.48 28.547-2.1155 24.565 9.3094-2.8007 8.034-13.775 13.738-14.674 7.6275-0.69102-4.6962-3.2576-4.2985-9.5215 1.4754-5.8581 5.3998-12.933 7.339-14.938 4.0945zm-21.496-1.0218c-9.7755-6.5272-1.721-25.681 10.799-25.681 1.758 0 3.5676 0.60082 4.0214 1.3352 0.46291 0.74901-0.5873 1.3352-2.3923 1.3352-12.072 0-19.02 11.784-11.627 19.72 3.6586 3.927 3.168 5.9417-0.80149 3.2912zm4.0246-7.1748c-0.48228-0.78034 0.36146-2.6571 1.875-4.1707 3.1757-3.1757 10.178-2.0952 12.74 1.9658 1.9619 3.1103 0.56399 4.0569-3.6339 2.4609-2.2421-0.85246-4.7195-0.88459-6.8137-0.0884-2.1852 0.83083-3.5852 0.77448-4.1675-0.16772zm409.69 80.75c5.4012-11.233 15.247-14.345 19.011-6.009 1.658 3.6725 5.1991 3.1976 5.766-0.77324 1.3512-9.4635-17.606-13.736-25.144-5.6668-6.9098 7.397-12.199 16.381-10.339 17.562 4.3358 2.7526 7.6962 1.1479 10.706-5.1125zm18.904 5.4102c1.7803-0.68317 3.1454-4.5302 1.6074-4.5302-1.2571 0-10.177 4.1115-10.177 4.691 0 0.92057 6.0471 0.80712 8.5693-0.16076zm14.119-14.799c-4.2514-7.5407-5.3727-5.0814-4.056 8.8964 0.0327 0.34676 1.4072-0.71736 3.0546-2.3647 2.7812-2.7812 2.8527-3.2479 1.0014-6.5316zm-462.06-100.95c14.676-2.7517 9.3009-8.7394-8.1494-9.0774-13.165-0.25501-26.459 6.6622-16.775 8.7285 1.6523 0.35256 4.2057 0.89514 5.6744 1.2057 4.8487 1.0253 10.57 0.7707 19.25-0.85683zm133.37-4.1287c15.962-8.321-17.446-16.211-38.433-9.0772-9.1145 3.0981-9.6602 4.7677-2.4378 7.4585 14.23 5.3015 32.425 6.0221 40.871 1.6187zm60.066-10.429c2.2293-2.2293 2.0175-5.3352-1.11-16.278-14.473-50.641-13.075-47.743-21.058-43.67-2.9816 1.5211-11.32 4.2883-18.53 6.1494-25.546 6.5944-28.691 8.1291-22.789 11.121 2.4773 1.2557 1.7165 1.3935-4.3393 0.78594-14.623-1.4671-53.116 9.6733-66.53 19.255-4.651 3.3222-17.585 7.4203-17.585 5.5718 0-0.58826 1.6522-1.4819 3.6717-1.986 15.339-3.8285 14.113-9.1646-1.6625-7.235-8.7511 1.0704-15.634 1.0495-25.983-0.07919-7.7431-0.84444-19.486-2.1158-26.095-2.8253-6.609-0.70948-13.017-1.6057-14.239-1.9915-2.7814-0.87777-5.7116 3.1536-8.589 11.816-2.85 8.5805-1.6156 9.5505 8.2104 6.4521 26.421-8.3313 31.52-7.7264 60 7.1182 13.066 6.8106 29.209 4.6943 35.395-4.64 0.36717-0.55409 3.9378-2.9314 7.9347-5.2829 35.672-20.987 73.537-17.305 102.46 9.9622 8.5386 8.0498 8.5423 8.0517 10.837 5.7571zm-149.93-8.829c-5.1298-1.0147-22.741-7.2168-28.038-9.8739-2.9373-1.4735-7.1431-3.1524-9.3461-3.7308-3.1866-0.83668-3.3975-1.0796-1.0318-1.1884 1.6355-0.07517 6.7425 1.2819 11.349 3.0157 4.6064 1.7338 8.6756 3.1365 9.0428 3.1171 0.36717-0.01944 4.1448 1.2657 8.3948 2.8558 12.29 4.5984 17.147 3.4121 36.193-8.8403 7.3834-4.7498 18.29-8.7481 21.819-7.9982 1.4169 0.30116-0.36693 1.4244-4.4798 2.8207-3.7588 1.2762-10.969 5.116-16.022 8.533-9.7872 6.6182-23.475 12.161-27.88 11.289zm28.038-54.984c-0.45385-0.73434-3.193-1.3352-6.087-1.3352s-5.2618 0.60082-5.2618 1.3352c0 0.73434 2.7392 1.3352 6.087 1.3352 3.718 0 5.7658-0.51963 5.2618-1.3352zm-22.784-1.1952c1.0932-1.7688-1.7204-2.4932-13.765-3.5438-7.4843-0.65287-10.849-0.49758-10.849 0.50065 0 1.58 4.9964 2.6631 15.354 3.3283 3.6717 0.23582 7.0909 0.53705 7.5984 0.66941 0.50741 0.13237 1.255-0.2972 1.6613-0.95459zm685.31 531.02c-2.772-1.5009-6.9777-3.2161-9.3461-3.8114-7.1432-1.7956-28.174-11.106-32.12-14.219-5.3144-4.1934-9.2144-10.193-21.458-33.011-1.5395-2.8691-4.4812-6.9083-6.5371-8.976-5.0969-5.1262-3.5629-7.5399 9.8522-15.502 5.8887-3.4951 12.93-7.6802 15.648-9.3002 2.7176-1.62 6.2029-4.521 7.7451-6.4467 4.0071-5.0036 9.0449 0.82636 13.885 16.068 5.4912 17.292 27.858 35.382 43.748 35.382 9.8973 0 29.003 14.825 22.36 17.351-6.5046 2.473-32.177 20.132-34.463 23.705-1.4373 2.2467-3.3441 1.9931-9.3128-1.2388zm20.394-13.57c20.021-14.352 20.005-14.402-6.0082-19.648-15.568-3.1393-20.306-5.2481-26.619-11.847-6.1681-6.4473-8.1919-5.3861-7.4603 3.9119 0.21223 2.6973-0.0669 3.0176-1.4544 1.669-2.3033-2.2388-4.3118-2.1194-3.4205 0.20325 0.39514 1.0297 0.30921 2.2869-0.19094 2.7937-0.50016 0.50681-0.90937 3.4031-0.90937 6.4362 0 4.673-0.55142 5.7818-3.6127 7.2646-5.0948 2.4677-3.5148 4.8868 5.3679 8.2186 4.175 1.566 11.797 4.8852 16.937 7.376 11.96 5.7954 9.6308 6.3382 27.371-6.3784zm-58.747-11.398c0-0.64476-1.3118-2.0433-2.9151-3.1078-3.9403-2.6162-1.1653-4.0786 3.322-1.7506 4.2919 2.2266 6.1784 0.27299 3.0618-3.1708-4.5566-5.035 0.30295-13.496 7.7514-13.496 6.9534 0 8.7359-4.7408 5.1537-13.706-1.5357-3.8436-3.5252-9.3917-4.4209-12.329-3.9931-13.094-7.0536-15.204-14.059-9.6938-4.3286 3.4049-8.8375 6.0751-19.077 11.297-8.917 4.548-9.4335 5.8797-4.6671 12.035 3.8151 4.9271 8.4044 12.331 13.891 22.41 4.5203 8.3046 11.959 15.465 11.959 11.512zm9.3461-3.1002c0-2.1568-0.39482-2.5425-1.4859-1.4515-0.81721 0.81721-1.0822 2.139-0.58877 2.9373 1.3811 2.2346 2.0746 1.7379 2.0746-1.4859zm1.0839-12.098c0.47801-2.4821-1.9136-3.0233-4.9267-1.1149-1.012 0.641-1.4066 1.8667-0.87688 2.7238 1.374 2.2232 5.2738 1.142 5.8036-1.6089zm41.641-36.752c-24.078-24.301-48.732-34.475-81.166-33.492-4.9239 0.14917-9.0398-0.38581-9.9469-1.2929-0.85104-0.85105-2.5553-1.5474-3.7872-1.5474-8.0472 0-4.0826-7.6826 14.755-28.592 12.549-13.93 11.442-13.35 19.395-10.144 1.4687 0.59196 5.6744 2.2764 9.3461 3.7431 3.6717 1.4668 9.8301 3.0872 13.685 3.601 3.8553 0.51377 7.0096 1.4786 7.0096 2.144 0 0.66543 1.409 1.2099 3.131 1.2099 9.8788 0 39.987 13.109 48.606 21.163 6.2386 5.8294 6.1901 6.1038-5.5241 31.248-2.6529 5.6942-4.8234 10.858-4.8234 11.476 0 5.6489-5.3249 5.8904-10.681 0.48427zm12.606-16.639c9.5692-20.144 9.5182-19.903 5.1267-24.294-4.7974-4.7974-10.344-7.5406-25.486-12.605-18.263-6.1086-23.187-5.3973-18.842 2.7216 1.9438 3.6321 0.15976 5.1317-2.2251 1.8703-2.9174-3.9898-5.6856-0.66428-3.2443 3.8974 2.5084 4.6869 0.0405 10.052-4.6239 10.052-5.3771 0-4.0013 1.6426 6.1503 7.3434 5.2307 2.9374 15.293 9.9753 22.361 15.64 7.0676 5.6646 13.03 10.321 13.249 10.347 0.21941 0.0266 3.6098-6.711 7.5341-14.972zm-59.337-20.094c0-0.95464-0.75102-2.5343-1.6689-3.5103-1.3709-1.4577-1.0406-1.6269 1.85-0.94751 4.4637 1.0491 7.1118-1.8474 5.9438-6.5013-0.8564-3.4122 3.8652-10.003 7.1661-10.003 4.7286 0-0.0793-2.7387-8.284-4.7187-5.3239-1.2848-12.514-3.7528-15.977-5.4844-8.8337-4.4163-9.2004-4.2762-17.1 6.5315-3.8912 5.3239-8.8598 11.593-11.041 13.931-6.3779 6.8356-4.7341 7.9108 13.747 8.9918 8.9425 0.52306 17.557 1.4744 19.143 2.1141 4.2054 1.696 6.2219 1.5652 6.2219-0.40337zm13.101-4.8566c0.33379-1.0014-0.16689-1.502-1.1683-1.1683-0.96381 0.32128-2.0152 1.3727-2.3365 2.3365-0.33379 1.0014 0.1669 1.502 1.1683 1.1683 0.96381-0.32128 2.0152-1.3727 2.3365-2.3365z"/>
</svg>
