<?xml version="1.0" encoding="UTF-8" standalone="no"?>
<svg id="svg2" xmlns:rdf="http://www.w3.org/1999/02/22-rdf-syntax-ns#" xmlns="http://www.w3.org/2000/svg" height="3428pt" width="2365pt" version="1.1" xmlns:cc="http://creativecommons.org/ns#" xmlns:dc="http://purl.org/dc/elements/1.1/" viewBox="0 0 2365 3428">
<g id="g4265" transform="translate(-3200)">
<path id="rect4262" d="m4181.2 16.864c-15.208-0.18375-30.899 4.3406-44.089 11.466-3.93 1.35-8.21 0.15068-12.2-0.0094-30.55-5.21-61.361-12.161-92.541-9.8906-4.51 0.09-9.0191 0.56031-13.489 0.57031-48.14 3.09-93.971 21.54-142.33 23.5-19.57 0.97-33.679 16.59-42.189 32.83-16.76 33.56-33.541 67.111-50.311 100.66-6.18 12.07-10.769 25.359-11.009 39.019 0.05 6.68 0.02 13.351-0.03 20.031 2.39 40.9 18.55 79.629 31.45 118.14 12.04 33.86 11.23 69.931 14.07 105.26 4.48 20.9 6.4791 46.279 24.939 60.169 25.46 13.02 58.211 7.3009 81.411 25.411-48.93-15.73-99.401 8.7391-145.13 24.689-23.16 8.55-45.939 20.88-61.289 40.72-35.41 44.83-68.4 91.76-107.17 133.82-32.52 25.88-65.849 50.79-98.759 76.2-6.73 4.41-17.24 10.41-24.25 3.5297-5.28-8.55-5.4603-19.099-6.5203-28.789-1.14-11.78-1.1009-23.65-0.02-35.42 3.98-56.89 17.199-112.61 31.309-167.71 5.13-18.11 2.7912-37.199 2.5312-55.719-0.42-4.81-0.7803-9.65-0.5703-14.45-0.02-21.39-2.3306-42.701-3.7906-64.011-2.84 2.1-2.9897 6.7706-4.5297 9.9906-6.13-61.78-18.199-123.02-35.759-182.57 11.8-4.71 19.759-22.38 9.0188-32.18-4.3376-3.5812-9.7715-5.1673-15.281-5.2812-3.306-0.0684-6.6394 0.39279-9.7782 1.2703-13.82-25.74-42.35 0.15032-62.13-12.88-2.5015-1.5141-4.9173-2.1909-7.2093-2.2109-12.377-0.10807-21.149 18.953-20.381 28.952-17.32-2.8-34.649-5.5697-51.759-9.5297-1.0956-0.0569-2.2074-0.0813-3.3313-0.0718-16.856 0.14081-36.33 7.7906-42.18 24.572-2.37 16.52 7.2509 35.08 22.811 41.55 20.61 3.73 36.02-13.97 55.43-17.45-8.24 19.04-23.57 34.169-40.83 45.259-4.02 2.32-1.9203 7.8494-1.3203 11.409 12.76 38.56 30.569 75.66 42.309 114.42-0.94-0.88-2.1588-1.37-3.2188-2.05 6.1 30.67 11.589 61.53 14.309 92.7 1.31 7.62 1.2206 15.491-0.3094 23.091-15.64 94.77-29.661 189.87-44.481 284.79-1.3 32.07-0.2288 64.231-0.5188 96.331-0.05 21.01 0.02 42.03-0.1 63.05-0.07 3 0.34 6.3097 2.6 8.5297 37.36 29.44 89.139 33.9 133.74 20.73 86.82-44.92 173.9-89.38 260.72-134.32 49.14-23.87 96.5-54.979 151.35-63.889 32.41-6.48 48.961 26.049 62.641 48.919 70.33 128 140.75 256.4 198.12 390.87 12.49 31.84 26.18 63.94 29.85 98.22 2.2 17.73-5.91 39.74-27.05 39.88-40.95-6.36-82.219-12.759-123.76-12.959-4.48-0.08-8.9694-0.55-13.409-0.75-7.58-0.42-15.16-0.4004-22.72-0.2704-7.01 0.16-14.05 0.04-21.05 0.03-8.55-0.06-17.12-0.4903-25.63 0.4297-4.8 0.42-9.65 0.7103-14.45 0.5703-52.32 1.29-104.37 7.9504-156.08 15.77-56.28 8.94-114.98 23.76-159.05 61.95-31.5 30.28-46.42 73.741-51.83 116.19-11.36 112.64-24.5 225.17-34.97 337.85-0.1 4.08-0.42 8.13-0.75 12.3-6.81 120.77-11.699 241.71-17.489 362.56-3.43 27.51 17.4 49.849 38.2 64.509 5.86 4.01-3.1809 10.381-6.3109 13.491-25.07 18.37-50.89 35.701-76.2 53.741-13.2 9.75-31.899 29.08-17.689 45.58-35.84 36.99-70.09 77.3-114.82 103.93-20.52 12.49-45.129 11.98-68.159 14.77-16.55 5.01-25.08 24.179-25.75 40.409 0.01 4.98-0.021 9.86-0.041 14.95 2.65 37.47 48.579 45.69 78.809 46.03 4.2 0.07 8.39 0.291 12.6 0.611 17.39 1.5 34.801 0.35 52.211-0.1 17.55-1.14 35.17-0.8709 52.73 0.089 1.66 0.08 4.9807 0.2513 6.6407 0.3313 4.06 0.14 8.119 0.3387 12.189 0.7687 35.3 2.65 70.47 8.031 105.83 9.261 11.69-0.16 23.391-0.1 35.091 0 66.37-2.89 131.66-17.071 196.81-29.191-8.17-55.41-17.38-110.74-24.73-166.26 23.71-16.17 26.851-46.91 27.311-73.22-2.63-35.31-3.6603-70.71-5.8703-106.03-0.33-4.49-0.4507-9.071-0.5907-13.461 0.02-5.55 0.2497-11.059-0.3703-16.489-1.05-6.72-0.8394-13.62-0.6094-20.33 0.05-4.3-0.1196-8.6113-0.2796-12.781-1.23-21.85-1.132-43.77-0.042-65.6 0.13-3.91 0.2308-7.779 0.3108-11.589 0.04-5.48 0.3194-10.91 0.7094-16.28 2.34-28.83 3.3906-57.83 8.7406-86.32 14.38-77.01 27.449-154.68 51.659-229.36 8.16-22.18 15.13-47.209 35.4-61.569 11.56-10.07 28.081-8.5406 42.241-10.891 9.39-1.62 18.99-0.6909 28.43 0.08 88.32 6.74 177.44 14.161 263.39 36.711 24.68 7.83 61.189 17.659 59.419 50.319-11.24 41.98-28.91 82.621-36.51 125.74-12.08 88.3-24.13 176.6-36.05 264.92-2.68 21.75-5.59 43.569-5.4 65.539 0 17.68 0.03 35.381-0.041 53.091 1.41 38.1 7.55 76.06 19.7 112.27 20.13 66.08 42.839 131.34 65.359 196.64 18.27 46.27 15.11 97.051 19.43 145.71 0.61 5.07 0.5696 10.08 0.5796 15.28 1.87 28.56 13.571 55.82 29.991 79 30.18 43.41 69.889 78.991 109.72 113.29 8.38 13.04-5.659 29.899 1.961 43.759 4.82 7.5 11.98 14.209 20.9 16.209-17.36 62.8-47.12 121.32-67.23 183.19-7 23.49-15.481 56.43 6.8687 74.35 34.35 20.61 77.09 11.74 114.9 8.4297 41.11-7 90.45-5.9097 119.9-40.13 22.28-30.15 31.301-67.639 50.241-99.759 16.15-34.25 39.051-67.441 41.681-106.26-0.07-6.38-0.03-12.78 0.041-19.05-1.36-28.1-15.56-53.24-28.83-77.2 3.04-18.2 1.1092-37.01-4.3608-54.58-24.92-64.61-54.819-127.44-73.889-194.18-20.48-87.03-41.31-173.98-62-260.96-9.1-41.25-25.22-80.4-38.78-120.25-5.82-32.11 4.069-64.31 14.089-94.55 42.54-122.4 93.821-241.58 145.81-360.2 30.86-65.27 65.809-128.56 97.709-193.29 20.03-51.6 33.56-106.47 34.18-162.01 0.029-2.3059 0.049-4.6106 0.058-6.9156-0.01 2.305-0.027 4.6097-0.056 6.9156 163.65 68.29 326.82 138.89 496.17 192.13 62.03 17.54 125.93 37.709 191.13 31.339 24.79-2.64 50.351-14.84 62.391-37.62 17.42-33.85 14.229-73.629 8.7888-110.04-14.66-92.02-40.09-181.88-65.65-271.35-41.32-142.83-88.34-284.19-145.48-421.52-50.76-121.08-109.24-239.65-184.36-347.63-28.19-40.14-58.022-79.461-93.39-113.61-85.37-84.21-192.42-143.46-304.33-184.7-68.962-23.138-141.72-37.955-214.59-38.016-24.29-0.0203-48.593 1.5994-72.77 5.0969-61.61 8.08-119.43 32.28-175.84 57.18-31.41 15.34-72.041 34.06-76.311 73.45-1.62-10.81-5.3791-21.25-6.5891-32.1 1.44-0.31 4.3303-0.91093 5.7703-1.2109 5.82-21.95 9.5088-44.57 15.869-66.3 19.92-18.78 38.751-40.91 40.431-69.68 1.77-27.77 25.22-45.57 42.58-64.4 22.96-20.01 27.61-57.01 10.47-82.03-21.59-23.31-56.951-26.16-79.281-48.7-15.55-16.86-4.5688-44.96-22.619-60.4-11.25-11.71-25.974-16.602-41.181-16.786z" fill="#aba3a1"/>
<path id="path4" d="m4181.2 16.864c-15.208-0.18375-30.899 4.3406-44.089 11.466-3.93 1.35-8.21 0.15063-12.2-0.0094-30.55-5.21-61.361-12.161-92.541-9.8906-4.51 0.09-9.0191 0.56031-13.489 0.57031-48.14 3.09-93.971 21.54-142.33 23.5-19.57 0.97-33.679 16.59-42.189 32.83-16.76 33.56-33.541 67.111-50.311 100.66-6.18 12.07-10.769 25.359-11.009 39.019 0.05 6.68 0.02 13.351-0.03 20.031 2.39 40.9 18.55 79.629 31.45 118.14 6.96-21.69 9.0791-45.749 21.989-65.089 6.05-9.03 18.501-4.3403 24.311 2.3297 16.83 17.31 29.349 38.359 45.939 55.839 8.62 9.63 21.97 4.6712 31.87 0.23124 35.68-15.07 76.23 1.6591 112.1-11.811 14.03-4 13.15-22.66 22.23-29.57 25.64 30.25 41.871 69.751 72.841 96.181 21.32 19.09 51.341 24.979 79.191 23.869 5.82-21.95 9.5088-44.57 15.869-66.3 19.92-18.78 38.751-40.91 40.431-69.68 1.77-27.77 25.22-45.57 42.58-64.4 22.96-20.01 27.61-57.01 10.47-82.03-21.59-23.31-56.951-26.16-79.281-48.7-15.55-16.86-4.5688-44.96-22.619-60.4-11.25-11.71-25.974-16.602-41.181-16.786zm-237.2 216.46c9.83 4.88 19.37 11.169 28.37 17.589 0.22 0.27 0.6597 0.80031 0.8797 1.0703 5.84 2.49 16.91 12.051 7.8203 17.141-21.69 6.47-46.011 5.7803-67.461-1.5297-3.69-6.84-10.279-13.581-11.209-21.161 13.77-4.57 27.76-8.7694 41.6-13.109zm-479.34 13.519c-3.3059-0.0684-6.6393 0.39281-9.7781 1.2703 7.28 11.14 11.501 23.791 16.041 36.191 11.8-4.71 19.759-22.38 9.0188-32.18-4.3375-3.5812-9.7714-5.1673-15.281-5.2812zm471.26 0.75938c-4.5747 0.10457-9.74 2.0281-12.35 4.5312 0.58 4.1 1.19 8.21 2.15 12.25 5.78 1.69 11.92 1.5506 17.9 2.0406 2.25-4.79 0.6188-10.17 0.4188-15.18-1.3606-2.7038-4.5607-3.7235-8.1188-3.6422zm-120.96 1.8328c6.7088-0.10875 13.357 3.9106 20.009 5.4781-1.1 1.76-1.72 5.7003-3.8 5.6703-1.76 3.13-3.2503 7.3506-6.3703 9.0906-2.51 3.63-10.56 17.24-13.87 7.3797-3.05-6.1 8.4997-3.1906 11.58-6.8406 0.03-3.88 0.3206-7.7394 0.1406-11.609-5.37-1.73-11.151-0.77031-16.361 1.0297 0.63 1.69-0.4494 13.381-1.8094 7.4609-2.92-1.75-4.9197-4.6109-6.4797-7.5609-8.86-3.65 6.7897-7.7303 10.23-8.3703 2.2525-1.1975 4.495-1.6919 6.7312-1.7281zm-504.89 2.9375c-16.856 0.14081-36.33 7.7906-42.18 24.572-2.37 16.52 7.2509 35.08 22.811 41.55 20.61 3.73 36.02-13.97 55.43-17.45 19.5-6.41 40.11-8.6312 60.28-10.831 0.92-11.39 1.7606-22.799 2.4906-34.209-14.63 1.22-28.951 8.9003-43.741 5.9703-17.32-2.8-34.649-5.5697-51.759-9.5297-1.0956-0.0569-2.2075-0.0813-3.3312-0.0719zm-14.308 9.4281c16.061-0.12335 29.439 18.165 22.778 33.653-5.6 16.73-30.45 21.261-41.3 7.3406-12.83-12.93-4.5997-37.731 13.47-40.341 1.6997-0.43031 3.3901-0.64037 5.0515-0.65313zm215.45 195.08c-2.84 2.1-2.9897 6.7706-4.5297 9.9906-7.88 19.88-26.86 35.9-48.68 37.2-26.71 1.96-53.82-0.03-80.22-4.4-11.53-7.73-21.541-17.841-31.491-27.541-0.94-0.88-2.1588-1.37-3.2188-2.05 6.1 30.67 11.589 61.53 14.309 92.7 1.31 7.62 1.2206 15.491-0.3094 23.091-15.64 94.77-29.661 189.87-44.481 284.79-1.3 32.07-0.2288 64.231-0.5188 96.331-0.05 21.01 0.02 42.03-0.1 63.05-0.07 3 0.34 6.3097 2.6 8.5297 37.36 29.44 89.139 33.9 133.74 20.73 86.82-44.92 173.9-89.38 260.72-134.32 49.14-23.87 96.5-54.979 151.35-63.889 32.41-6.48 48.961 26.049 62.641 48.919 70.33 128 140.75 256.4 198.12 390.87 12.49 31.84 26.18 63.94 29.85 98.22 2.2 17.73-5.91 39.74-27.05 39.88-40.95-6.36-82.219-12.759-123.76-12.959-4.48-0.08-8.9694-0.55-13.409-0.75-7.58-0.42-15.16-0.4003-22.72-0.2703-7.01 0.16-14.05 0.04-21.05 0.03-8.55-0.06-17.12-0.4903-25.63 0.4297-4.8 0.42-9.65 0.7103-14.45 0.5703-52.32 1.29-104.37 7.9503-156.08 15.77-56.28 8.94-114.98 23.76-159.05 61.95-31.5 30.28-46.42 73.741-51.83 116.19-11.36 112.64-24.5 225.17-34.97 337.85-0.1 4.08-0.42 8.13-0.75 12.3-6.81 120.77-11.699 241.71-17.489 362.56-3.43 27.51 17.4 49.849 38.2 64.509 5.86 4.01-3.1809 10.381-6.3109 13.491-25.07 18.37-50.89 35.701-76.2 53.741-13.2 9.75-31.899 29.08-17.689 45.58-35.84 36.99-70.09 77.3-114.82 103.93-20.52 12.49-45.129 11.98-68.159 14.77-16.55 5.01-25.08 24.179-25.75 40.409 0.01 4.98-0.021 9.86-0.041 14.95 2.65 37.47 48.579 45.69 78.809 46.03 4.2 0.07 8.39 0.2909 12.6 0.6109 17.39 1.5 34.801 0.35 52.211-0.1 17.55-1.14 35.17-0.8709 52.73 0.089 1.66 0.08 4.9806 0.2512 6.6406 0.3312 4.06 0.14 8.1191 0.3388 12.189 0.7688 35.3 2.65 70.47 8.0309 105.83 9.2609 11.69-0.16 23.391-0.1 35.091 0 66.37-2.89 131.66-17.071 196.81-29.191-8.17-55.41-17.38-110.74-24.73-166.26 23.71-16.17 26.851-46.91 27.311-73.22-2.63-35.31-3.6603-70.71-5.8703-106.03-0.33-4.49-0.4506-9.0709-0.5906-13.461 0.02-5.55 0.2497-11.059-0.3703-16.489-1.05-6.72-0.8394-13.62-0.6094-20.33 0.05-4.3-0.1197-8.6112-0.2797-12.781-1.23-21.85-1.1306-43.77-0.041-65.6 0.13-3.91 0.2309-7.7791 0.3109-11.589 0.04-5.48 0.3194-10.91 0.7094-16.28 2.34-28.83 3.3906-57.83 8.7406-86.32 14.38-77.01 27.449-154.68 51.659-229.36 8.16-22.18 15.13-47.209 35.4-61.569 11.56-10.07 28.081-8.5406 42.241-10.891 9.39-1.62 18.99-0.6903 28.43 0.08 88.32 6.74 177.44 14.161 263.39 36.711 24.68 7.83 61.19 17.659 59.42 50.319-11.24 41.98-28.909 82.621-36.509 125.74-12.08 88.3-24.13 176.6-36.05 264.92-2.68 21.75-5.59 43.569-5.4 65.539 0 17.68 0.029 35.381-0.041 53.091 1.41 38.1 7.55 76.06 19.7 112.27 20.13 66.08 42.841 131.34 65.361 196.64 18.27 46.27 15.11 97.051 19.43 145.71 0.61 5.07 0.5697 10.08 0.5797 15.28 1.87 28.56 13.571 55.82 29.991 79 30.18 43.41 69.889 78.991 109.72 113.29 8.38 13.04-5.6591 29.899 1.9609 43.759 4.82 7.5 11.98 14.209 20.9 16.209-17.36 62.8-47.12 121.32-67.23 183.19-7 23.49-15.481 56.43 6.8688 74.35 34.35 20.61 77.09 11.74 114.9 8.4297 41.11-7 90.45-5.9097 119.9-40.13 22.28-30.15 31.301-67.639 50.241-99.759 16.15-34.25 39.05-67.441 41.68-106.26-0.07-6.38-0.029-12.78 0.041-19.05-1.36-28.1-15.56-53.24-28.83-77.2 3.04-18.2 1.1091-37.01-4.3609-54.58-24.92-64.61-54.819-127.44-73.889-194.18-20.48-87.03-41.31-173.98-62-260.96-9.1-41.25-25.221-80.4-38.781-120.25-5.82-32.11 4.0706-64.31 14.091-94.55 42.54-122.4 93.819-241.58 145.81-360.2 30.86-65.27 65.811-128.56 97.711-193.29 20.03-51.6 33.56-106.47 34.18-162.01 1.86-147.58-37.49-293.32-98.97-426.74-4.66-12.07-13.72-24.68-11.02-37.95 36.24 9.87 72.34 20.439 108.57 30.409 37.06 8.74 80.25 2.0603 106.72-27.23 19.5-22.62 20.84-54.93 14.22-82.77-21.6-102.77-73.5-195.93-125.4-286.35-22.2-36.28-42.8-73.9-70.6-106.37-64-75.47-146.6-133.04-233.4-179.28-29.79 14.07-61.991 30.271-79.091 59.841 9.8 24.66 7.1903 52.169 6.2703 78.039-1.57 7.33-0.1894 18.401-8.9594 21.511-0.43 28.48-22.45 49.349-37.12 71.709-2.61 6.3-4.4703 14.54 0.03 20.48 26.95 21.62 42.6 54.24 48.55 87.73-21.87 48.85-46.72 96.381-68.75 145.18-4.29-1.62-7.9794-4.5013-11.859-6.8313-20.43 45.12-13.161 95.591-19.591 143.34-1.72 13.72-16.07 23.051-29.45 22.291-21.38-1.07-43.719-9.21-57.789-25.85-8.79-15.19-5.4803-35.011-16.57-49.411-23.63-22.37-49.81-42.119-72.65-65.289-16.15-16.72-13.211-43.79 2.0391-59.97 20.46-21.33 48.361-34.26 69.231-55.05-11.21-11.09-22.21-23.691-26.1-39.361-3.93-17.33 5.1488-33.539 11.419-49.039 9.08-21.58 6.5903-45.691 13.17-67.841 5.57-18.22 25.84-27.98 43.98-26.73 14.98-24.17 24.031-51.69 31.961-78.85 0.51-15.78 6.5197-30.841 9.0797-46.341-12.72 6.03-25.36 15.59-29.47 29.65-1.31 13.03 6.1406 24.361 11.491 35.611-3.45 6.56-5.0103 16.42-10.77 20.77-5.5-23.17-16.02-46.38-11.92-70.65 2.98-22.29 22.431-40.63 44.941-42.1-46.05 1.01-68.53-48.971-75.93-87.561-21.49 39.31-36.781 90.08-80.831 109.8-20.47 8.61-41.78 15.07-63.23 20.73-21.29 4.7-37 21.141-56.18 30.461-12.47 2.58-22.159-7.5203-30.209-15.27-21.23-22.22-38.951-47.489-56.731-72.459-1.39-0.61-2.7588-1.2103-4.1188-1.8203-48.93-15.73-99.401 8.7391-145.13 24.689-23.16 8.55-45.939 20.88-61.289 40.72-35.41 44.83-68.4 91.76-107.17 133.82-32.52 25.88-65.849 50.79-98.759 76.2-6.73 4.41-17.24 10.41-24.25 3.5297-5.28-8.55-5.4603-19.099-6.5203-28.789-1.14-11.78-1.1003-23.65-0.02-35.42 3.98-56.89 17.199-112.61 31.309-167.71 5.13-18.11 2.7912-37.199 2.5312-55.719-0.42-4.81-0.7803-9.65-0.5703-14.45-0.02-21.39-2.3306-42.701-3.7906-64.011z"/>
<path id="path10" d="m4940.9 308.83c-4.8864-0.10305-8.9727 1.1387-10.848 5.2168 0.25 6.2625 2.2891 12.987-0.5234 18.975 12.362-0.6125 42.45 2.6242 37.037-18.051-0.275-0.3375-0.8246-1.0004-1.0996-1.3379-6.0547-0.72656-16.422-4.631-24.566-4.8027zm-38.316 6.2852c-18.494-0.001-7.4543 13.466 4.5703 15.355-1.2-5.05-1.9625-10.188-2.6875-15.312-0.659-0.0289-1.2863-0.0429-1.8828-0.043zm-124.3 8.13c0.225 4.8375-0.1383 9.6617-0.1758 14.512 0.7125-0.1625 2.1508-0.49883 2.8633-0.67383 3.9-2.175 5.7629-7.4508 7.9629-11.363-3.6625-0.325-7.1629-1.4996-10.65-2.4746zm-27.106 0.75781c-1.0941-0.01-2.3359 0.13008-3.707 0.4043 1.95 3.6875 4.4496 7.2637 8.0996 9.4512 2.3156-6.957 0.3488-9.8136-4.3926-9.8555zm-631.51 3.2383c-2.0769 0.016-4.1899 0.27852-6.3145 0.81641-22.588 3.2625-32.875 34.263-16.838 50.426 13.562 17.4 44.625 11.737 51.625-9.1758 8.3262-19.36-8.3963-42.221-28.473-42.066z" transform="scale(.8)" fill="#fff"/>
<g>
<path id="path12" d="m3385.5 233.02c-12.377-0.10807-21.149 18.953-20.381 28.952 14.79 2.93 29.111-4.7503 43.741-5.9703-0.73 11.41-1.5706 22.819-2.4906 34.209-20.17 2.2-40.78 4.4212-60.28 10.831-8.24 19.04-23.57 34.169-40.83 45.259-4.02 2.32-1.9203 7.8494-1.3203 11.409 12.76 38.56 30.569 75.66 42.309 114.42 9.95 9.7 19.961 19.811 31.491 27.541 26.4 4.37 53.51 6.36 80.22 4.4 21.82-1.3 40.8-17.32 48.68-37.2-6.13-61.78-18.199-123.02-35.759-182.57-4.54-12.4-8.7606-25.051-16.041-36.191-13.82-25.74-42.35 0.15031-62.13-12.88-2.5015-1.5141-4.9174-2.1909-7.2094-2.2109zm558.46 0.30156c-13.84 4.34-27.83 8.5394-41.6 13.109 0.93 7.58 7.5194 14.321 11.209 21.161 21.45 7.31 45.771 7.9997 67.461 1.5297 9.09-5.09-1.9803-14.651-7.8203-17.141 4.33 16.54-19.74 13.951-29.63 14.441-5.98-0.49-12.12-0.35062-17.9-2.0406-9.93-1.56-19.02-12.99-2.15-12.25 4.64-4.45 17.359-7.0691 20.469-0.88907 4-8.7 20.581-1.2612 28.331-0.33124-9-6.42-18.54-12.709-28.37-17.589zm-129.04 16.111c-2.2362 0.0362-4.4787 0.53062-6.7312 1.7281-3.44 0.64-19.09 4.7203-10.23 8.3703 5.85-1.17 8.7597 0.71093 6.4797 7.5609 1.36 5.92 2.4394-5.7709 1.8094-7.4609 5.21-1.8 10.991-2.7597 16.361-1.0297 2.79 0.78 5.5903 1.7197 8.5203 1.9797 2.08 0.03 2.7-3.9103 3.8-5.6703-6.6525-1.5675-13.301-5.5869-20.009-5.4781zm9.8391 20.239c-0.57 0.14-1.7206 0.40907-2.2906 0.53907-3.08 3.65-14.63 0.74062-11.58 6.8406 3.31 9.86 11.36-3.7497 13.87-7.3797zm11.308 13.42c-3.696-0.0731-7.2109 1.3316-9.6687 5-12.91 19.34-15.029 43.399-21.989 65.089 12.04 33.86 11.23 69.931 14.07 105.26 4.48 20.9 6.4791 46.279 24.939 60.169 25.46 13.02 58.211 7.3009 81.411 25.411 1.36 0.61 2.7288 1.2103 4.1188 1.8203 24.14-1.89 48.631 0.49876 72.561-4.3312 29.14-4.4 56.27-16.589 84.13-25.359 17.45 21.35 31.879 45.12 49.659 66.23 44.05-19.72 59.341-70.49 80.831-109.8-0.15-4.7-0.3112-9.4194-0.4312-14.109-1.62-10.81-5.3791-21.25-6.5891-32.1 1.44-0.31 4.3303-0.91093 5.7703-1.2109-27.85 1.11-57.871-4.7788-79.191-23.869-30.97-26.43-47.201-65.931-72.841-96.181-9.08 6.91-8.1997 25.57-22.23 29.57-35.87 13.47-76.42-3.2591-112.1 11.811-9.9 4.44-23.25 9.3988-31.87-0.23124-16.59-17.48-29.109-38.529-45.939-55.839-3.4497-3.9603-9.2403-7.2228-14.642-7.3297zm-426.3 13.94c16.17 42.1 27.891 86.601 29.291 131.91 0.92 13.67-6.9312 31.609-23.981 27.959-24.22-4.29-46.71-16.79-65.55-32.38-2.57-2.58-6.9894-5.8097-5.0594-9.9297 24.26-4.16 48.77 7.67 72.92 3 11.49-2.09 13.369-15.36 11.109-24.8-6.15-31.94-13.23-63.701-18.73-95.761zm450 48.82c-8.58 13-16.53 28.099-26.63 39.059-5.4-11.79-10.38-23.84-15.07-35.95 12.91 8.62 26.57 1.4109 39.45-2.5391 0.56-0.14 1.69-0.43031 2.25-0.57031zm21.019 66.206c14.346-0.0303 28.754 6.4638 40.881 11.994-27.91 12.97-64.969 20.52-94.909 7.1797-13.3-3.32-2.7503-22.45 7.8297-18.08 13.24 4.89 26.861 3.8906 40.061-0.65938 2.04-0.29249 4.0881-0.43004 6.1375-0.43437zm362.51 299.89c-17.194 0.10902-35.336 9.7547-40.558 26.836-6.58 22.15-4.0903 46.261-13.17 67.841-6.27 15.5-15.349 31.709-11.419 49.039 3.89 15.67 14.89 28.271 26.1 39.361 38.03 34.61 81.48 62.469 124.78 89.939 3.88 2.33 7.5694 5.2113 11.859 6.8313 22.03-48.8 46.88-96.331 68.75-145.18-5.95-33.49-21.6-66.11-48.55-87.73-33.08-24.86-72.27-45.21-114.37-46.83-1.1338-0.0781-2.2756-0.11352-3.4219-0.10625z" fill="#fecf99"/>
<path id="path38" d="m3409.8 297.03c5.5 32.06 12.58 63.821 18.73 95.761 2.26 9.44 0.3806 22.71-11.109 24.8-24.15 4.67-48.66-7.16-72.92-3-1.93 4.12 2.4894 7.3497 5.0594 9.9297 18.84 15.59 41.33 28.09 65.55 32.38 17.05 3.65 24.901-14.289 23.981-27.959-1.4-45.31-13.121-89.811-29.291-131.91zm471.03 115.03c-2.0494 0.004-4.0975 0.14188-6.1375 0.43437-13.2 4.55-26.821 5.5494-40.061 0.65938-10.58-4.37-21.13 14.76-7.8297 18.08 29.94 13.34 66.999 5.7903 94.909-7.1797-12.128-5.53-26.535-12.024-40.881-11.994zm14.664 11.639c3.758-0.009 7.3644 0.27656 10.578 1.2141-25.4 1.05-51.02 5.1412-76.32 0.93124 14.63-2.37 31.38 0.33938 46.8-1.2906 5.9938-0.006 12.679-0.84014 18.942-0.85469z" fill="#e3aa73"/>
<path id="path42" d="m3859.8 345.85c-0.56 0.14-1.69 0.43031-2.25 0.57031-12.88 3.95-26.54 11.159-39.45 2.5391 4.69 12.11 9.6703 24.16 15.07 35.95 10.1-10.96 18.05-26.059 26.63-39.059zm225.84 170.3c-27.86 8.77-54.99 20.959-84.13 25.359-23.93 4.83-48.421 2.4412-72.561 4.3312 17.78 24.97 35.501 50.239 56.731 72.459 8.05 7.75 17.739 17.85 30.209 15.27 19.18-9.32 34.89-25.761 56.18-30.461 21.45-5.66 42.76-12.12 63.23-20.73-17.8-21.11-32.2-44.88-49.7-66.23z" fill="#e1b382"/>
<path id="path46" d="m3876.6 424.55c9.59-0.01 20.95-2.14 29.52 0.36-25.4 1.05-51.02 5.14-76.32 0.93 14.63-2.37 31.38 0.34 46.8-1.29z" fill="#c1804a"/>
<path id="path54" d="m4292.1 560.14c30.27-3.55 60.85-2.45 91.2-0.52 6.68 0.07 12.45 3.7 17.64 7.52 9.8 24.66 7.19 52.17 6.27 78.04-1.57 7.33-0.19 18.4-8.96 21.51-17.61-16.42-26.24-42.28-49.05-52.94-25.1-8.31-49.66 7.09-70.45 19.45 0.51-15.78 6.52-30.84 9.08-46.34-12.72 6.03-25.36 15.59-29.47 29.65-1.31 13.03 6.14 24.36 11.49 35.61-3.45 6.56-5.01 16.42-10.77 20.77-5.5-23.17-16.02-46.38-11.92-70.65 2.98-22.29 22.43-40.63 44.94-42.1z" fill="#654025"/>
</g>
</g>
</svg>
